<?xml version="1.0" encoding="UTF-8"?><svg id="Layer_1" xmlns="http://www.w3.org/2000/svg" xmlns:xlink="http://www.w3.org/1999/xlink" viewBox="0 0 375 375"><defs><style>.cls-1{fill:url(#linear-gradient);}.cls-2{fill:#fff;}.cls-3{fill:#243885;}</style><linearGradient id="linear-gradient" x1="181.32" y1="186.59" x2="188.46" y2="-71.52" gradientUnits="userSpaceOnUse"><stop offset="0" stop-color="#4dc2f1"/><stop offset=".57" stop-color="#4f98d3"/><stop offset=".8" stop-color="#4da6dd"/><stop offset=".82" stop-color="#4188b4" stop-opacity=".99"/><stop offset=".85" stop-color="#346583" stop-opacity=".98"/><stop offset=".89" stop-color="#29485a" stop-opacity=".97"/><stop offset=".92" stop-color="#21313a" stop-opacity=".96"/><stop offset=".95" stop-color="#1a2124" stop-opacity=".95"/><stop offset=".97" stop-color="#171716" stop-opacity=".95"/><stop offset="1" stop-color="#161412" stop-opacity=".95"/></linearGradient></defs><path class="cls-3" d="M283.51,117.85c-2.48,6.55-2.56,12.04-2.56,13.3,0,4.44,.17,10.11,5.57,19.82,4.44,8,9.2,15.68,13.68,22.8,12.49,19.83,17.49,42.19,14.87,66.44-3.33,30.79-15.03,56.89-34.78,77.58-24.49,25.66-50.12,40.6-78.36,45.67-9.33,1.68-18.63,2.53-27.66,2.53-20.57,0-40.77-4.43-60.02-13.17-16.93-7.69-29.71-16.17-40.24-26.68-19.47-19.45-29.57-44.32-30.01-73.91-.49-33.06,11.56-62.72,35.81-88.16,10.87-11.4,23.08-21.23,34.89-30.73,.78-.63,7.65-5.88,16.38-13.44,7.61-6.6,11.48-9.98,14.62-13.98,6.7-8.56,8.9-17.2,10.57-24.12,6.86-28.23,1.79-66.3,.85-73.02l6.08,3.71c24.79,15.14,41.49,31.44,52.56,51.29,14.81,26.57,17.08,66.55-11.23,95.99-4.69,4.88-6.93,9.12-7.26,13.75-.32,4.56,1.07,8.8,3.93,11.92,2.95,3.23,7.17,5.01,11.89,5.01,.28,0,.56,0,.85-.02,11.49-.51,20.35-9.75,20.6-21.5,.06-2.91-.04-5.82-.14-8.91-.17-4.79-.34-9.74,.13-14.83,.16-1.74,.6-7.26,2.24-12.97,1.07-3.73,3.97-13.31,12.65-21.88,9.47-9.36,20.23-11.96,23.84-12.78,4.73-1.08,9.12-1.32,12.5-1.51,6.52-.36,11.99,0,15.94,.42-1.52,1.02-13.59,9.32-18.17,21.4Z"/><path class="cls-1" d="M174.38,359.94c-19.58,0-38.8-4.22-57.14-12.55-16.13-7.33-28.28-15.37-38.25-25.33-18.32-18.3-27.81-41.73-28.23-69.64-.46-31.3,10.97-59.41,33.97-83.54,10.46-10.97,22.3-20.5,33.75-29.72,.12-.1,.32-.25,.61-.48,2-1.56,8.1-6.33,15.56-12.8,7.39-6.41,11.47-9.94,14.83-14.23,7.22-9.22,9.45-18.4,11.07-25.1,5.31-21.89,3.52-49.72,1.9-64.84,23.14,14.28,38.76,29.62,49.12,48.19,13.79,24.75,15.93,61.97-10.4,89.35-5.27,5.48-7.8,10.38-8.19,15.9-.39,5.55,1.34,10.73,4.86,14.58,3.64,3.99,8.8,6.18,14.53,6.18,.33,0,.66,0,1-.02,13.34-.59,23.62-11.29,23.91-24.88,.06-2.97-.04-5.87-.14-8.94-.16-4.57-.32-9.29,.12-14.02l.03-.29c.17-1.84,.61-6.73,2.03-11.69,.84-2.93,3.41-11.86,11.37-19.72,5.75-5.68,12.97-9.55,21.46-11.48,4.31-.99,8.34-1.21,11.58-1.38,1.68-.09,3.39-.14,5.08-.14h.05c-4.09,3.97-8.64,9.5-11.18,16.2-2.48,6.55-2.76,12.25-2.76,14.4,0,5.35,.44,11.41,5.94,21.31,4.38,7.89,9.08,15.48,13.5,22.5,11.74,18.65,16.44,39.69,13.98,62.53-3.16,29.26-14.26,54.05-32.99,73.67-23.39,24.5-47.78,38.75-74.57,43.56-8.9,1.6-17.78,2.41-26.38,2.41Z"/><circle class="cls-2" cx="145.83" cy="233.16" r="23.54"/><circle class="cls-2" cx="214.09" cy="233.16" r="23.54"/><path class="cls-3" d="M214.17,252.27c-9.06,.04-16.73-7.56-16.75-16.62-.03-9.08,7.57-16.72,16.63-16.73,9.17-.01,16.68,7.45,16.72,16.61,.04,9.13-7.46,16.7-16.59,16.75Z"/><path class="cls-3" d="M161.52,235.62c-.01,8.67-7,15.72-15.63,15.75-8.84,.04-15.82-7.08-15.74-16.02,.08-8.66,7.23-15.7,15.81-15.59,8.62,.11,15.57,7.19,15.56,15.86Z"/></svg>