<?xml version="1.0" encoding="UTF-8"?><svg id="Layer_1" xmlns="http://www.w3.org/2000/svg" viewBox="0 0 375 375"><defs><style>.cls-1{fill:#fefefe;}.cls-2{fill:#41464d;}.cls-3{fill:#1553a0;}</style></defs><path class="cls-2" d="M239.95,166.16c-.38-8.07-.05-15.06,1.74-21.92,4.42-16.95,15.47-26.63,32.52-29.86,3.75-.71,7.37-1.2,11.17,0,2.04,.65,2.38,1.47,2.09,3.45-.59,4.01-1.91,7.75-3.57,11.39-4.61,10.14-3.79,19.98,1.68,29.48,3.72,6.45,7.54,12.85,11.6,19.09,13.18,20.23,16.52,42.22,12.58,65.77-5.21,31.19-21.58,55.4-46.35,74.2-42.02,31.87-87.02,33.79-133.95,12.29-16.77-7.68-31.03-18.7-41.44-34.23-12.46-18.6-16.26-39.29-14.28-61.21,2.64-29.26,17.17-52.24,38.46-71.55,12.73-11.55,26.75-21.51,39.78-32.7,7.07-6.07,13.71-12.54,18.27-20.82,7.27-13.2,7.7-27.16,4.68-41.51-1.34-6.35-2.95-12.62-5.47-18.61-1.89-4.49,.89-7.89,2.54-11.55,.39-.87,1.05-.38,1.62-.06,22.35,12.9,42.2,28.44,53.26,52.62,12.25,26.78,7.04,55.64-13.34,76.98-2.33,2.44-4.37,5.08-5.31,8.4-1.55,5.45,.09,11.12,4.39,14.27,5.59,4.09,11.62,3.78,17.44,.73,6.56-3.45,9.85-9.14,9.91-16.61,.02-3.02,0-6.05,0-8.05Zm5.85-.86c0,3.35-.03,6.7,0,10.05,.05,5.16-1.86,9.7-4.8,13.72-5.18,7.07-16.2,12.87-26.28,8.78-3.42-1.39-6.89-3.02-9.15-6.36-5.75-8.49-5.08-16.84,1.65-24.65,5.24-6.08,10.99-11.75,13.83-19.7,1.91-5.35,4.38-10.54,5.29-16.15,2.75-17.09-.54-33.06-9.94-47.62-4.74-7.34-10.49-13.76-16.96-19.79-6.66-6.21-14.24-11-21.42-16.41-.65-.49-1.58-1.17-2.37-.54-.93,.74-.41,1.76,0,2.66,1.39,3.03,2.04,6.29,2.99,9.47,2.92,9.81,3.99,19.75,3.67,29.94-.22,6.97-2.25,13.6-4.65,19.89-3.71,9.71-11.26,16.85-18.89,23.66-6.29,5.61-13.12,10.58-19.62,15.93-3.83,3.15-7.71,6.33-11.56,9.47-12.95,10.58-25.05,21.89-34.04,36.13-3.95,6.26-7.44,12.9-9.59,19.93-3.89,12.69-5.59,25.65-4.34,39.11,1.08,11.64,3.95,22.44,9.23,32.83,5.72,11.25,14.06,20.17,23.92,27.64,8.51,6.45,17.96,11.49,27.96,15.37,4.89,1.9,9.71,4.35,14.8,5.31,5.88,1.11,11.65,2.83,17.65,3.38,6.88,.64,13.77,1.17,20.66,.6,7.89-.66,15.72-1.79,23.48-3.55,5.57-1.26,10.82-3.17,16.07-5.26,3.5-1.4,6.61-3.62,10.01-5.05,6.62-2.78,11.9-7.55,17.65-11.49,3.9-2.68,7.48-6.33,10.84-9.93,4.44-4.76,9.25-9.23,13.35-14.26,3.21-3.93,6.26-8.07,8.36-12.83,1.9-4.32,3.95-8.53,5.49-13.03,1.91-5.6,3.48-11.12,4.21-17.1,.67-5.47,1.77-10.96,2.11-16.48,.47-7.73-.62-15.33-2.3-22.94-1.58-7.13-4.46-13.64-7.87-19.9-4.76-8.73-10.73-16.77-15.35-25.6-3.99-7.62-5.95-15.58-4.35-24.28,.87-4.74,2.89-8.99,4.68-13.35,.77-1.87,.82-3.48-1.67-3.24-7.47,.72-14.5,3.15-20.31,7.87-5.9,4.79-9.25,11.44-11.16,18.81-1.62,6.25-1.23,12.62-1.27,18.96Z"/><path class="cls-3" d="M245.8,165.29c.05-6.35-.34-12.71,1.28-18.96,1.91-7.37,5.26-14.02,11.16-18.81,5.81-4.72,12.83-7.15,20.31-7.87,2.49-.24,2.43,1.38,1.67,3.24-1.79,4.36-3.81,8.61-4.68,13.35-1.6,8.7,.36,16.67,4.35,24.28,4.62,8.83,10.59,16.87,15.35,25.6,3.41,6.25,6.29,12.77,7.87,19.9,1.69,7.61,2.77,15.21,2.3,22.94-.33,5.52-1.44,11.01-2.11,16.48-.73,5.98-2.3,11.49-4.21,17.1-1.53,4.49-3.59,8.71-5.49,13.03-2.1,4.76-5.15,8.9-8.36,12.83-4.11,5.04-8.91,9.5-13.35,14.26-3.36,3.6-6.94,7.25-10.84,9.93-5.75,3.94-11.03,8.71-17.65,11.49-3.4,1.43-6.51,3.65-10.01,5.05-5.25,2.09-10.5,4-16.07,5.26-7.77,1.76-15.59,2.89-23.48,3.55-6.88,.58-13.78,.04-20.66-.6-6-.56-11.77-2.27-17.65-3.38-5.09-.96-9.9-3.41-14.8-5.31-10-3.88-19.45-8.91-27.96-15.37-9.86-7.47-18.2-16.39-23.92-27.64-5.28-10.39-8.15-21.19-9.23-32.83-1.25-13.46,.45-26.43,4.34-39.11,2.16-7.03,5.64-13.67,9.59-19.93,8.99-14.24,21.09-25.55,34.04-36.13,3.84-3.14,7.73-6.32,11.56-9.47,6.5-5.34,13.33-10.31,19.62-15.93,7.63-6.81,15.18-13.95,18.89-23.66,2.4-6.29,4.43-12.91,4.65-19.89,.32-10.19-.75-20.13-3.67-29.94-.94-3.18-1.6-6.43-2.99-9.47-.41-.9-.93-1.92,0-2.66,.79-.62,1.71,.05,2.37,.54,7.17,5.41,14.75,10.19,21.42,16.41,6.46,6.02,12.22,12.45,16.96,19.79,9.4,14.56,12.69,30.52,9.94,47.62-.9,5.62-3.38,10.81-5.29,16.15-2.84,7.95-8.59,13.62-13.83,19.7-6.72,7.8-7.4,16.15-1.65,24.65,2.26,3.34,5.74,4.97,9.15,6.36,10.08,4.09,21.1-1.72,26.28-8.78,2.94-4.01,4.86-8.56,4.8-13.72-.03-3.35,0-6.7-.01-10.05Zm-64.12,63.35c.05-11.58-9.11-20.83-20.68-20.88-11.36-.05-20.77,9.39-20.77,20.83,0,11.2,9.47,20.61,20.74,20.62,11.31,.01,20.66-9.28,20.71-20.57Zm59.68,1.85c-.01-11.43-9.15-20.63-20.53-20.68-11.43-.04-20.88,9.37-20.86,20.78,.02,11.35,9.28,20.59,20.65,20.63,11.66,.04,20.74-9.05,20.73-20.73Z"/><path class="cls-1" d="M181.68,228.64c-.05,11.3-9.4,20.59-20.71,20.57-11.27-.01-20.73-9.43-20.74-20.62,0-11.44,9.41-20.88,20.77-20.83,11.56,.05,20.73,9.31,20.68,20.88Zm-5.75,1.91c-.01-7.83-6.16-13.94-13.97-13.89-7.63,.05-13.78,6.17-13.81,13.76-.04,7.72,6.24,14.14,13.86,14.18,7.65,.04,13.93-6.31,13.92-14.06Z"/><path class="cls-1" d="M241.36,230.5c.01,11.68-9.07,20.77-20.73,20.73-11.37-.03-20.63-9.28-20.65-20.63-.02-11.41,9.43-20.83,20.86-20.78,11.38,.04,20.51,9.25,20.53,20.68Zm-4.46,2.11c-.02-8.14-6.42-14.6-14.53-14.67-8.16-.07-14.88,6.59-14.86,14.75,.02,8.11,6.78,14.76,14.95,14.68,8.03-.07,14.47-6.65,14.44-14.76Z"/><path class="cls-2" d="M175.93,230.55c.01,7.75-6.27,14.1-13.92,14.06-7.62-.04-13.9-6.47-13.86-14.18,.04-7.59,6.18-13.72,13.81-13.76,7.81-.05,13.96,6.06,13.97,13.89Z"/><path class="cls-2" d="M236.9,232.6c.02,8.11-6.41,14.69-14.44,14.76-8.16,.07-14.93-6.58-14.95-14.68-.02-8.15,6.7-14.82,14.86-14.75,8.1,.07,14.5,6.53,14.53,14.67Z"/></svg>