<?xml version="1.0" encoding="UTF-8" standalone="no"?>
<svg
   id="Layer_1"
   viewBox="0 0 375 375"
   version="1.1"
   sodipodi:docname="Artboard 1 (1).svg"
   inkscape:version="1.2.2 (b0a8486541, 2022-12-01)"
   xmlns:inkscape="http://www.inkscape.org/namespaces/inkscape"
   xmlns:sodipodi="http://sodipodi.sourceforge.net/DTD/sodipodi-0.dtd"
   xmlns="http://www.w3.org/2000/svg"
   xmlns:svg="http://www.w3.org/2000/svg">
  <sodipodi:namedview
     id="namedview19"
     pagecolor="#ffffff"
     bordercolor="#000000"
     borderopacity="0.25"
     inkscape:showpageshadow="2"
     inkscape:pageopacity="0.0"
     inkscape:pagecheckerboard="0"
     inkscape:deskcolor="#d1d1d1"
     showgrid="false"
     inkscape:zoom="2.2826667"
     inkscape:cx="105.14019"
     inkscape:cy="187.71904"
     inkscape:window-width="1920"
     inkscape:window-height="1022"
     inkscape:window-x="1920"
     inkscape:window-y="0"
     inkscape:window-maximized="1"
     inkscape:current-layer="Layer_1" />
  <defs
     id="defs4">
    <style
       id="style2">.cls-1{fill:#fff;}.cls-2{fill:#243885;}.cls-3{fill:#1d1d1b;}</style>
  </defs>
  <path
     class="cls-3"
     d="M282.27,120.95c-2.45,6.47-2.53,11.9-2.53,13.14,0,4.39,.17,9.98,5.5,19.58,4.39,7.9,9.09,15.5,13.52,22.52,12.34,19.6,17.28,41.68,14.69,65.64-3.29,30.42-14.85,56.21-34.36,76.65-24.2,25.35-49.52,40.11-77.42,45.13-9.22,1.66-18.41,2.5-27.32,2.5-20.33,0-40.28-4.38-59.3-13.02-16.73-7.6-29.36-15.97-39.76-26.36-19.24-19.22-29.21-43.79-29.65-73.02-.48-32.66,11.42-61.97,35.38-87.1,10.74-11.27,22.8-20.97,34.47-30.36,.77-.62,7.56-5.81,16.18-13.28,7.52-6.52,11.35-9.86,14.44-13.81,6.62-8.46,8.79-17,10.45-23.83,6.77-27.9,1.76-65.51,.84-72.15l6,3.67c24.49,14.96,40.99,31.06,51.93,50.68,14.63,26.25,16.87,65.75-11.1,94.84-4.64,4.82-6.85,9.01-7.17,13.58-.32,4.51,1.06,8.69,3.88,11.78,2.92,3.19,7.09,4.95,11.74,4.95,.28,0,.56,0,.84-.02,11.35-.51,20.1-9.64,20.35-21.24,.06-2.87-.04-5.75-.14-8.8-.16-4.73-.33-9.62,.13-14.65,.16-1.72,.59-7.18,2.22-12.82,1.06-3.68,3.92-13.15,12.5-21.62,9.36-9.24,19.99-11.82,23.55-12.63,4.68-1.07,9.01-1.31,12.35-1.49,6.44-.35,11.85,0,15.75,.41-1.51,1-13.43,9.21-17.95,21.14Z"
     id="path6"
     style="fill:#3f3e43;fill-opacity:1" />
  <path
     class="cls-2"
     d="M174.38,360.31c-19.58,0-38.8-4.22-57.14-12.55-16.13-7.33-28.28-15.37-38.25-25.33-18.32-18.3-27.81-41.73-28.23-69.64-.46-31.3,10.97-59.41,33.97-83.54,10.46-10.97,22.3-20.5,33.75-29.72,.12-.1,.32-.25,.61-.48,2-1.56,8.1-6.33,15.56-12.8,7.39-6.41,11.47-9.94,14.83-14.23,7.22-9.22,9.45-18.4,11.07-25.1,5.31-21.89,3.52-49.72,1.9-64.84,23.14,14.28,38.76,29.62,49.12,48.19,13.79,24.75,15.93,61.97-10.4,89.35-5.27,5.48-7.8,10.38-8.19,15.9-.39,5.55,1.34,10.73,4.86,14.58,3.64,3.99,8.8,6.18,14.53,6.18,.33,0,.66,0,1-.02,13.34-.59,23.62-11.29,23.91-24.88,.06-2.97-.04-5.87-.14-8.94-.16-4.57-.32-9.29,.12-14.02l.03-.29c.17-1.84,.61-6.73,2.03-11.69,.84-2.93,3.41-11.86,11.37-19.72,5.75-5.68,12.97-9.55,21.46-11.48,4.31-.99,8.34-1.21,11.58-1.38,1.68-.09,3.39-.14,5.08-.14h.05c-4.09,3.97-8.64,9.5-11.18,16.2-2.48,6.55-2.76,12.25-2.76,14.4,0,5.35,.44,11.41,5.94,21.31,4.38,7.89,9.08,15.48,13.5,22.5,11.74,18.65,16.44,39.69,13.98,62.53-3.16,29.26-14.26,54.05-32.99,73.67-23.39,24.5-47.78,38.75-74.57,43.56-8.9,1.6-17.78,2.41-26.38,2.41Z"
     id="path8"
     style="fill:#1453a2;fill-opacity:1" />
  <circle
     class="cls-1"
     cx="214.09"
     cy="233.53"
     r="23.54"
     id="circle10" />
  <path
     class="cls-3"
     d="M215.64,253.14c-9.06,.04-16.73-7.56-16.75-16.62-.03-9.08,7.57-16.72,16.63-16.73,9.17-.01,16.68,7.45,16.72,16.61,.04,9.13-7.46,16.7-16.59,16.75Z"
     id="path12"
     style="fill:#3f3e43;fill-opacity:1" />
  <circle
     class="cls-1"
     cx="142.08"
     cy="233.53"
     r="23.54"
     id="circle14" />
  <path
     class="cls-3"
     d="M143.63,253.14c-9.06,.04-16.73-7.56-16.75-16.62-.03-9.08,7.57-16.72,16.63-16.73,9.17-.01,16.68,7.45,16.72,16.61,.04,9.13-7.46,16.7-16.59,16.75Z"
     id="path16"
     style="fill:#3f3e43;fill-opacity:1" />
</svg>
